<svg width="23" height="23" viewBox="0 0 23 23" fill="none" xmlns="http://www.w3.org/2000/svg">
<path d="M12.0178 6.94791L12.0206 6.94822C12.879 7.04488 14.0036 6.84318 15.0939 6.56413C16.2213 6.27556 17.4506 5.86599 18.5779 5.45383C18.8955 5.33767 19.2064 5.22083 19.5061 5.10581C19.3258 5.3711 19.1413 5.64686 18.9559 5.92943C18.2974 6.9328 17.6184 8.03641 17.081 9.06894C16.5613 10.0674 16.1093 11.1179 16.01 11.9784C15.9107 12.8389 16.1117 13.9646 16.3904 15.055C16.6787 16.1825 17.0886 17.4115 17.5013 18.5381C17.6168 18.8535 17.733 19.1621 17.8474 19.4597C17.5838 19.2806 17.3099 19.0974 17.0292 18.9132C16.0261 18.2551 14.9226 17.5762 13.8902 17.0388C12.8918 16.5191 11.8414 16.0671 10.981 15.9672C10.12 15.8674 8.99373 16.068 7.90305 16.3466C6.77509 16.6346 5.54581 17.0445 4.4189 17.4572C4.10514 17.5721 3.79805 17.6876 3.50185 17.8015C3.68007 17.5395 3.86243 17.2672 4.04563 16.9884C4.70444 15.9855 5.38377 14.8819 5.92116 13.8486C6.44085 12.8493 6.89244 11.7969 6.99013 10.9332C7.08757 10.0716 6.88645 8.94581 6.60738 7.85464C6.31891 6.7267 5.90919 5.49812 5.49682 4.37207C5.38195 4.05839 5.26641 3.75142 5.15261 3.45535C5.41602 3.63436 5.68973 3.81759 5.97015 4.00168C6.97318 4.66013 8.07646 5.33919 9.10874 5.87672C10.1069 6.39649 11.1573 6.84856 12.0178 6.94791Z" stroke="#284AA3" stroke-width="2"/>
</svg>
