<svg width="32" height="48" viewBox="0 0 32 48" fill="none" xmlns="http://www.w3.org/2000/svg">
<path d="M21.3548 46.5493C21.799 45.9228 22.1072 45.2472 22.6194 44.6451C27.2336 39.4157 28.4789 33.7582 28.2655 28.0244C28.1929 26.0501 27.4445 24.0195 26.3401 22.3476C23.2744 17.5334 18.9224 13.679 13.2348 10.9913C11.598 10.2138 9.69784 9.71604 7.64142 9.46158C8.01483 9.85846 8.40272 10.298 8.82968 10.6767C10.0425 11.7884 11.3089 12.8819 12.4291 14.0725C12.8995 14.5793 13.1456 15.3049 13.3237 16.006C13.4106 16.2621 13.059 16.8096 12.7522 16.9613C12.4454 17.1129 11.7696 17.0565 11.6437 16.8613C9.02108 13.7053 5.2727 11.4547 1.85569 8.94889C0.661691 8.06882 0.629753 7.27058 1.90167 6.26814C5.06915 3.81378 8.68243 1.96972 12.6199 0.729582C12.727 0.693267 12.9456 0.809524 13.3537 0.956673C13.0299 3.87442 9.34261 4.26821 7.0318 6.43205C7.77564 6.51294 8.38344 6.54478 8.89864 6.65562C19.0217 9.21922 25.8298 14.8583 30.2445 22.594C30.932 23.741 31.2882 25.1432 31.4548 26.5145C32.0299 31.5546 30.9857 36.5727 28.0356 41.4282C27.0735 42.9918 25.5816 44.402 24.1969 45.7759C23.6702 46.3352 22.76 46.6439 22.0538 47.0262C21.8208 46.8672 21.5878 46.7083 21.3548 46.5493Z" fill="#284AA3"/>
</svg>
