<svg width="24" height="31" viewBox="0 0 24 31" fill="none" xmlns="http://www.w3.org/2000/svg">
<path d="M20.334 4.54104C20.5873 5.52003 20.7776 6.38919 20.9947 7.22832C21.668 10.1421 21.4261 12.9405 20.0723 15.6637C19.0739 17.627 17.558 18.9681 15.4225 19.3806C13.287 19.7932 11.0855 20.0392 8.94364 20.3385C7.84443 20.4899 6.7688 20.5546 5.69947 20.7326C3.81714 21.1015 3.0954 21.9119 2.74644 23.8077C2.33304 26.0767 2.96855 28.3109 4.67967 30.4805C3.7016 31.2779 2.93099 30.6993 2.43715 29.9905C1.82063 29.1186 1.25444 28.13 0.971293 27.1244C0.651969 25.979 0.496181 24.71 0.573142 23.5407C0.749028 20.5759 2.18936 18.8985 5.08125 18.2984C6.79375 17.9397 8.522 17.8641 10.2408 17.6187C11.8196 17.4101 13.4252 17.1715 15.0276 16.8762C16.2369 16.6614 17.1049 15.9274 17.7574 14.894C18.748 13.3004 19.1363 11.6011 19.0025 9.70591C18.9804 9.30955 18.9316 8.9432 18.853 8.55024C18.532 6.86517 18.2111 5.18009 17.854 3.35516C16.6213 5.70183 15.4924 7.87182 14.3367 10.0718C14.31 10.1018 14.0804 10.0589 13.8807 10.0425C13.8681 9.81597 13.7391 9.53966 13.7862 9.36639C14.4764 6.96713 15.1068 4.51466 15.9998 2.18842C16.6948 0.385409 17.8348 -0.0524621 19.5301 0.811361C21.0194 1.54555 22.3546 2.57307 23.6332 3.604C23.9587 3.84007 24.0626 4.68601 23.9148 5.09259C23.8441 5.3525 23.0043 5.57346 22.6017 5.48406C21.8563 5.35846 21.2084 4.94294 20.334 4.54104Z" fill="#C13E70"/>
</svg>
