<svg width="128" height="128" viewBox="0 0 128 128" fill="none" xmlns="http://www.w3.org/2000/svg">
<g clip-path="url(#clip0_238_2894)">
<path d="M31.5 83.5C25 83.5 19.75 88.75 19.75 95.25C19.75 101.75 25 107 31.5 107C38 107 43.25 101.75 43.25 95.25C43.25 88.75 38 83.5 31.5 83.5ZM31.5 99.7C29.05 99.7 27 97.65 27 95.2C27 92.75 29.05 90.7 31.5 90.7C33.95 90.7 36 92.75 36 95.2C36 97.7 34 99.7 31.5 99.7ZM105.4 83C98.9 83 93.65 88.25 93.65 94.75C93.65 101.25 98.9 106.5 105.4 106.5C111.9 106.5 117.15 101.25 117.15 94.75C117.15 88.25 111.9 83 105.4 83ZM105.4 99.2C102.95 99.2 100.9 97.15 100.9 94.7C100.9 92.25 102.95 90.2 105.4 90.2C107.85 90.2 109.9 92.25 109.9 94.7C109.9 97.2 107.9 99.2 105.4 99.2ZM-0.25 88.55C-0.25 90.85 1.6 92.65 3.85 92.65H15.15C15.6 92.65 16 92.3 16.1 91.9C17.4 84.55 23.8 79.45 31.5 79.45C39.2 79.45 45.65 84.55 46.9 91.9C47 92.35 47.35 92.65 47.85 92.65H49.5H64.95V74.5H-0.25V88.55ZM126.8 84.25H124.3V73.25C124.3 69.5 121.25 66.45 117.45 66.45H105.3C105.05 66.45 104.8 66.3 104.6 66.15L85.6 47.65C84.75 46.8 83.55 46.3 82.3 46.25H68.55V92.65H89C89.45 92.65 89.85 92.3 89.95 91.9C91.25 84.55 97.65 78.95 105.35 78.95C113.05 78.95 119.5 84.55 120.75 91.9C120.85 92.35 121.2 92.65 121.7 92.65H123.3C125.75 92.65 127.65 90.7 127.65 88.3V85.15C127.75 84.7 127.3 84.25 126.8 84.25ZM95.55 66.5H74.85C74.35 66.5 73.9 66.05 73.9 65.55V52.35C73.9 51.85 74.35 51.4 74.85 51.4H81.8C82.05 51.4 82.3 51.55 82.55 51.7L96.3 64.85C96.75 65.5 96.35 66.5 95.55 66.5Z" fill="#284AA3"/>
<path d="M28.9 67.7498H8.55005V47.3998H16.4V53.8998H21.05V47.3998H28.9V67.7498ZM55.4501 67.7498H35.1501V47.3998H43V53.8998H47.6501V47.3998H55.5V67.7498H55.4501ZM42.35 41.1498H22V20.7998H29.85V27.2998H34.5V20.7998H42.35V41.1498Z" fill="#284AA3"/>
</g>
<defs>
<clipPath id="clip0_238_2894">
<rect width="128" height="128" fill="white"/>
</clipPath>
</defs>
</svg>
