<svg width="22" height="23" viewBox="0 0 22 23" fill="none" xmlns="http://www.w3.org/2000/svg">
<path d="M11.5178 6.94791L11.5206 6.94822C12.379 7.04488 13.5036 6.84318 14.5939 6.56413C15.7213 6.27556 16.9506 5.86599 18.0779 5.45383C18.3955 5.33767 18.7064 5.22083 19.0061 5.10581C18.8258 5.3711 18.6413 5.64686 18.4559 5.92943C17.7974 6.9328 17.1184 8.03641 16.581 9.06894C16.0613 10.0674 15.6093 11.1179 15.51 11.9784C15.4107 12.8389 15.6117 13.9646 15.8904 15.055C16.1787 16.1825 16.5886 17.4115 17.0013 18.5381C17.1168 18.8535 17.233 19.1621 17.3474 19.4597C17.0838 19.2806 16.8099 19.0974 16.5292 18.9132C15.5261 18.2551 14.4226 17.5762 13.3902 17.0388C12.3918 16.5191 11.3414 16.0671 10.481 15.9672C9.61997 15.8674 8.49373 16.068 7.40305 16.3466C6.27509 16.6346 5.04581 17.0445 3.9189 17.4572C3.60514 17.5721 3.29805 17.6876 3.00185 17.8015C3.18007 17.5395 3.36243 17.2672 3.54563 16.9884C4.20444 15.9855 4.88377 14.8819 5.42116 13.8486C5.94085 12.8493 6.39244 11.7969 6.49013 10.9332C6.58757 10.0716 6.38645 8.94581 6.10738 7.85464C5.81891 6.7267 5.40919 5.49812 4.99682 4.37207C4.88195 4.05839 4.76641 3.75142 4.65261 3.45535C4.91602 3.63436 5.18973 3.81759 5.47015 4.00168C6.47318 4.66013 7.57646 5.33919 8.60874 5.87672C9.60692 6.39649 10.6573 6.84856 11.5178 6.94791Z" fill="#C13E70" stroke="#C13E70" stroke-width="2"/>
</svg>
