<svg width="128" height="128" viewBox="0 0 128 128" fill="none" xmlns="http://www.w3.org/2000/svg">
<g clip-path="url(#clip0_238_2900)">
<path d="M45.4936 77.1859V8.55514C45.4936 5.32891 42.8705 2.70166 39.636 2.70166H5.84935C2.61073 2.70166 0 5.32891 0 8.55514V77.1817C0 80.4038 2.61073 83.0228 5.84935 83.0228H39.636C42.8705 83.0228 45.4936 80.408 45.4936 77.1859ZM35.7818 6.3699C36.6204 6.3699 37.2896 7.03497 37.2896 7.86115C37.2896 8.6832 36.6204 9.36067 35.7818 9.36067C34.9639 9.36067 34.2947 8.6832 34.2947 7.86115C34.2947 7.03497 34.9598 6.3699 35.7818 6.3699ZM14.9084 6.93583H30.581V8.64602H14.9084V6.93583ZM4.38288 64.4668V12.5786H41.119V64.471H4.38288V64.4668ZM22.7447 77.252C20.6834 77.252 19.0145 75.5872 19.0145 73.5218C19.0145 71.4563 20.6834 69.7916 22.7447 69.7916C24.806 69.7916 26.4749 71.4605 26.4749 73.5218C26.4749 75.5872 24.8019 77.252 22.7447 77.252Z" fill="#C13E70"/>
<path d="M89.3017 50.5868H96.6547V23.6121V16.2632H89.3017H53.0117V23.6121H89.3017V50.5868Z" fill="#C13E70"/>
<path d="M24.9836 87.9756H17.6306V105.619V112.968H24.9836H47.2822V105.619H24.9836V87.9756Z" fill="#C13E70"/>
<path d="M123.047 54.5444H58.6092H53.6479V59.5346V105.313V110.34H83.3078L83.25 122.419L75.835 122.456V125.298H83.3285H98.3153H105.809V122.456L98.274 122.415V110.336H128V105.309V59.5346V54.5444H123.047ZM123.869 105.429H58.572V59.7535H123.869V105.429Z" fill="#C13E70"/>
</g>
<defs>
<clipPath id="clip0_238_2900">
<rect width="128" height="128" fill="white"/>
</clipPath>
</defs>
</svg>
