<svg width="28" height="28" viewBox="0 0 28 28" fill="none" xmlns="http://www.w3.org/2000/svg">
<g clip-path="url(#clip0_184_1002)">
<rect width="28" height="28" rx="14" fill="url(#paint0_linear_184_1002)"/>
<path d="M16.8933 16.2399V17.3599C16.8933 18.8532 19.04 19.5066 19.04 19.5066C19.04 19.5066 16.5666 21.3732 14 21.3732C11.4333 21.3732 8.95996 19.5066 8.95996 19.5066C8.95996 19.5066 11.1235 18.8532 11.1066 17.3599C11.0897 15.8666 11.101 14.9892 11.0897 12.4308C9.75208 10.6969 9.83795 9.53324 10.5694 8.71489C13.02 5.97322 19.6933 6.90656 19.6933 6.90656C19.6933 6.90656 20.316 13.6259 18.9 15.5866C18.2933 16.4266 16.8933 16.2399 16.8933 16.2399Z" fill="url(#paint1_linear_184_1002)"/>
<path d="M16.8934 16.2401C14.84 16.0068 13.6267 15.1201 13.6267 15.1201C14.3927 16.2534 15.5602 17.0539 16.8934 17.3601V16.2401Z" fill="#DB6F3D"/>
<path d="M23.8001 22.3356C24.6886 24.1422 25.2001 28.3089 25.2001 28.3089H2.80005C2.80005 28.3089 3.3117 24.1418 4.20005 22.3356C5.0884 20.5294 10.276 18.8542 10.276 18.8542C11.2759 20.9068 16.7635 20.9068 17.7213 18.8535C17.7213 18.8535 22.9115 20.5289 23.8001 22.3356Z" fill="url(#paint2_linear_184_1002)"/>
<mask id="mask0_184_1002" style="mask-type:alpha" maskUnits="userSpaceOnUse" x="2" y="18" width="24" height="11">
<path d="M23.8001 22.3356C24.6886 24.1422 25.2001 28.3089 25.2001 28.3089H2.80005C2.80005 28.3089 3.3117 24.1418 4.20005 22.3356C5.0884 20.5294 10.276 18.8542 10.276 18.8542C11.2759 20.9068 16.7635 20.9068 17.7213 18.8535C17.7213 18.8535 22.9115 20.5289 23.8001 22.3356Z" fill="url(#paint3_linear_184_1002)"/>
</mask>
<g mask="url(#mask0_184_1002)">
<path d="M1.8667 26.8804V26.1337H26.1334V26.8804H1.8667ZM1.8667 25.0137V24.2671H26.1334V25.0137H1.8667ZM1.8667 23.1471V22.4004H26.1334V23.1471H1.8667Z" fill="#FFA789"/>
</g>
<path d="M12.2411 9.63288C11.9443 9.37799 11.5837 9.20635 11.0739 9.47123C9.8653 10.0987 10.78 12.5067 11.8533 12.5067C12.1333 12.5067 12.2726 13.3861 11.0259 14C11.0259 13.02 9.53257 10.5934 9.4019 8.38399C7.89924 7.82445 8.27257 5.58567 9.30418 5.58567C9.13954 3.53345 12.4259 2.47337 13.6984 3.65115C14.9926 2.10004 18.2592 2.89337 18.4564 4.23905C20.7027 3.04 22.1792 6.48671 20.076 7.82473C19.2105 8.3754 17.1859 8.58493 14.2634 8.58493C13.8222 8.58493 13.575 8.69451 13.6984 9.24004C13.9372 10.2971 13.3828 10.963 12.2411 9.63288Z" fill="url(#paint4_linear_184_1002)"/>
</g>
<defs>
<linearGradient id="paint0_linear_184_1002" x1="14" y1="0" x2="14" y2="28" gradientUnits="userSpaceOnUse">
<stop stop-color="#806A6A"/>
<stop offset="1" stop-color="#665654"/>
</linearGradient>
<linearGradient id="paint1_linear_184_1002" x1="14.3948" y1="6.75342" x2="14.3948" y2="21.3732" gradientUnits="userSpaceOnUse">
<stop stop-color="#E6864E"/>
<stop offset="1" stop-color="#EB965E"/>
</linearGradient>
<linearGradient id="paint2_linear_184_1002" x1="14" y1="28.3089" x2="14" y2="18.8535" gradientUnits="userSpaceOnUse">
<stop stop-color="#FFC9B3"/>
<stop offset="1" stop-color="#FFD2C2"/>
</linearGradient>
<linearGradient id="paint3_linear_184_1002" x1="14" y1="28.3089" x2="14" y2="18.8535" gradientUnits="userSpaceOnUse">
<stop stop-color="#FFC9B3"/>
<stop offset="1" stop-color="#FFD2C2"/>
</linearGradient>
<linearGradient id="paint4_linear_184_1002" x1="14.7451" y1="2.7998" x2="14.7451" y2="14" gradientUnits="userSpaceOnUse">
<stop stop-color="#1D0024"/>
<stop offset="1" stop-color="#100014"/>
</linearGradient>
<clipPath id="clip0_184_1002">
<rect width="28" height="28" rx="14" fill="white"/>
</clipPath>
</defs>
</svg>
