<svg width="141" height="164" viewBox="0 0 141 164" fill="none" xmlns="http://www.w3.org/2000/svg">
<path fill-rule="evenodd" clip-rule="evenodd" d="M0.945056 13.1665C1.14817 14.7155 2.36543 16.0407 4.35274 15.5355C19.1792 11.8018 35.0793 15.1653 46.6479 25.0833C55.7178 32.8613 60.53 43.3252 62.007 54.5882C62.4087 57.6515 62.563 60.7718 62.4917 63.9158C62.1533 78.8674 58.4526 93.6847 60.1927 108.68C60.217 108.901 60.2456 109.12 60.2743 109.338C62.1698 123.793 70.203 135.874 82.8955 143.59C99.0421 153.375 118.239 154.848 136.74 155.992C139.096 156.136 140.291 154.088 140.06 152.328C139.898 151.096 139.038 150.004 137.388 149.901C120.804 148.879 103.26 147.918 88.4332 139.747C81.8876 136.122 75.9328 131.171 71.986 124.854C68.8726 119.878 67.2213 114.263 66.4679 108.517C66.2926 107.18 66.1661 105.834 66.0803 104.49C65.0667 89.4026 69.1513 74.4786 68.6713 59.3545C68.6094 57.393 68.4524 55.4504 68.201 53.5338C66.5493 40.938 60.8165 29.4314 50.9839 20.7241C38.2727 9.45033 19.8925 5.34134 3.39084 9.50819C1.49217 9.9812 0.749769 11.6774 0.945056 13.1665Z" fill="#C13E70"/>
<path fill-rule="evenodd" clip-rule="evenodd" d="M36.3389 88.645C36.4518 89.5068 37.2603 90.2575 38.2481 89.7242C48.0084 84.5455 57.1525 78.3558 65.5431 71.1796C65.9545 70.8287 66.0851 70.3894 66.0312 69.9781C65.904 69.0083 64.7501 68.1843 63.7838 69.0093C55.5664 75.9978 46.6655 82.0984 37.0914 87.1718C36.4757 87.5088 36.2674 88.1004 36.3389 88.645Z" fill="#6A223E"/>
<path fill-rule="evenodd" clip-rule="evenodd" d="M23.9921 83.0582C24.1106 83.9613 25.2897 84.7961 26.3356 84.1059C39.6727 75.5001 53.0375 66.8883 66.3743 58.2802C66.8518 57.9793 67.0115 57.5621 66.9585 57.1576C66.8404 56.2567 65.6612 55.4219 64.615 56.1098C51.2783 64.718 37.9134 73.3297 24.5763 81.9356C24.0988 82.2364 23.9391 82.6537 23.9921 83.0582Z" fill="#6A223E"/>
<path fill-rule="evenodd" clip-rule="evenodd" d="M15.4674 74.2606C15.5816 75.1316 16.382 75.8763 17.3536 75.3099C32.8916 66.1742 47.7541 56.0117 61.8298 44.8084C62.2641 44.4687 62.4044 44.0305 62.3501 43.6168C62.2248 42.6608 61.0538 41.8343 60.0682 42.6384C46.1713 53.679 31.5245 63.7606 16.197 72.7576C15.5954 73.1114 15.3954 73.7113 15.4674 74.2606Z" fill="#6A223E"/>
<path fill-rule="evenodd" clip-rule="evenodd" d="M10.2639 61.2858C10.3848 62.2073 11.5596 63.045 12.5886 62.3359C27.3201 52.246 42.0235 42.1596 56.755 32.0697C57.2073 31.758 57.357 31.3373 57.3043 30.9352C57.1843 30.0205 56.0154 29.1914 54.9676 29.9029C40.2606 39.9617 25.5291 50.0516 10.8261 60.1403C10.3621 60.4534 10.2103 60.8767 10.2639 61.2858Z" fill="#6A223E"/>
<path fill-rule="evenodd" clip-rule="evenodd" d="M7.56709 48.4406C7.69577 49.4218 8.84939 50.2435 9.81796 49.4182C21.2575 39.5495 33.5445 30.7116 46.5648 22.9236C47.0421 22.6391 47.2038 22.2379 47.1523 21.845C47.0366 20.9625 45.8495 20.1217 44.7774 20.7568C31.7816 28.5137 19.4982 37.3792 8.05274 47.2206C7.6449 47.5804 7.51256 48.0246 7.56709 48.4406Z" fill="#6A223E"/>
<path fill-rule="evenodd" clip-rule="evenodd" d="M4.50263 32.8296C4.61687 33.7006 5.41116 34.4531 6.36167 33.8894C15.3457 28.6404 23.752 22.656 31.5962 15.8547C31.9941 15.5101 32.1227 15.0734 32.0687 14.6621C31.94 13.6808 30.7758 12.8324 29.8052 13.6603C22.1939 20.2944 13.9809 26.2264 5.23318 31.3335C4.63038 31.6782 4.43033 32.2781 4.50263 32.8296Z" fill="#6A223E"/>
<path fill-rule="evenodd" clip-rule="evenodd" d="M3.22823 22.4942C3.34701 23.3996 4.52433 24.2206 5.57019 23.5304C10.3015 20.4599 14.7278 17.0074 18.8533 13.205C19.2524 12.851 19.378 12.41 19.3235 11.994C19.1938 11.0058 18.0387 10.1727 17.094 11.0347C12.9404 14.8406 8.51047 18.2656 3.8109 21.3601C3.3346 21.6701 3.17523 22.0897 3.22823 22.4942Z" fill="#6A223E"/>
<path fill-rule="evenodd" clip-rule="evenodd" d="M63.1373 103.611C63.2656 104.59 64.8245 105.323 65.7761 104.332C72.4866 97.5335 79.1936 90.7074 85.8763 83.9147C86.1832 83.6027 86.2826 83.2701 86.2422 82.9622C86.1141 81.9855 84.5631 81.2583 83.6129 82.2238C76.906 89.0498 70.1991 95.8759 63.4885 102.674C63.1927 102.98 63.0975 103.308 63.1373 103.611Z" fill="#6A223E"/>
<path fill-rule="evenodd" clip-rule="evenodd" d="M64.5465 117.829C64.6767 118.821 66.2353 119.552 67.1896 118.563C77.9719 107.135 88.76 95.7316 99.546 84.331C99.8417 84.0251 99.9393 83.6974 99.8996 83.3941C99.7712 82.4151 98.2099 81.6822 97.2584 82.6735C86.47 94.0744 75.684 105.475 64.898 116.875C64.6035 117.191 64.5062 117.521 64.5465 117.829Z" fill="#6A223E"/>
<path fill-rule="evenodd" clip-rule="evenodd" d="M69.5718 129.191C69.7035 130.195 70.8436 131.023 71.7713 130.14C86.2127 116.33 100.651 102.495 115.095 88.6849C115.464 88.3252 115.58 87.8831 115.526 87.4694C115.393 86.456 114.233 85.6024 113.304 86.4905C98.8879 100.297 84.4498 114.132 70.012 127.969C69.6358 128.335 69.5176 128.777 69.5718 129.191Z" fill="#6A223E"/>
<path fill-rule="evenodd" clip-rule="evenodd" d="M80.7343 138.882C80.8611 139.849 82.0183 140.68 83.004 139.876C98.2 127.279 112.504 113.711 125.835 99.2073C126.118 98.8982 126.211 98.5711 126.172 98.2701C126.041 97.275 124.479 96.5352 123.545 97.55C110.389 111.863 96.2607 125.244 81.2411 137.678C80.8173 138.026 80.6797 138.466 80.7343 138.882Z" fill="#6A223E"/>
<path fill-rule="evenodd" clip-rule="evenodd" d="M94.4194 145.501C94.5496 146.494 95.7038 147.339 96.6339 146.474C108.945 135.243 121.253 123.982 133.563 112.724C133.959 112.361 134.086 111.915 134.031 111.494C133.9 110.497 132.745 109.664 131.8 110.526C119.49 121.787 107.182 133.045 94.8723 144.304C94.4869 144.654 94.3654 145.089 94.4194 145.501Z" fill="#6A223E"/>
<path fill-rule="evenodd" clip-rule="evenodd" d="M109.047 149.88C109.172 150.834 110.333 151.655 111.333 150.851L135.961 131.225C136.396 130.873 136.538 130.43 136.483 130.012C136.358 129.056 135.2 128.242 134.198 129.027L109.573 148.681C109.135 149.023 108.992 149.464 109.047 149.88Z" fill="#6A223E"/>
<path fill-rule="evenodd" clip-rule="evenodd" d="M1.42362 38.1984C2.20296 44.1412 3.30567 50.0433 4.73493 55.8739C6.66452 63.6667 9.20561 71.5811 14.25 78.0374C19.4246 84.6151 26.9134 88.5112 35.1031 90.1768C52.5863 93.7308 69.6686 87.0705 86.9174 85.3674C95.2611 84.5373 103.953 85.0555 111.502 88.9721C118.164 92.4141 123.44 98.2572 126.98 104.709C130.221 110.636 132.041 116.903 132.883 123.327C134.504 135.683 132.505 148.616 130.051 160.786C129.979 161.145 129.967 161.476 130.007 161.779C130.391 164.712 135.558 164.887 136.261 161.42C138.805 148.683 140.748 135.391 139.055 122.483C138.526 118.447 137.642 114.447 136.309 110.513C131.329 95.9006 120.023 83.4474 104.339 80.0007C87.1949 76.238 70.2673 82.9886 53.3573 84.6769C44.7347 85.5423 35.4219 85.2682 27.607 81.2473C20.0659 77.3882 15.8037 70.1931 13.1017 62.5771C10.4136 54.8682 8.80078 46.6569 7.73427 38.524C7.52181 36.9038 7.33134 35.2879 7.15822 33.6768C6.03246 23.5843 5.9472 13.4144 6.74478 3.27326C6.76265 3.02805 6.75862 2.79729 6.72965 2.57667C6.30024 -0.698117 0.822717 -1.04701 0.537725 2.66594C-0.397328 14.5017 -0.11965 26.4298 1.42362 38.1984Z" fill="#6A223E"/>
</svg>
