<svg width="103" height="183" viewBox="0 0 103 183" fill="none" xmlns="http://www.w3.org/2000/svg">
<path fill-rule="evenodd" clip-rule="evenodd" d="M93.6641 6.6634C93.664 5.44975 94.3068 4.24637 95.8024 3.79245C112.178 -1.12164 128.183 11.8114 132.684 27.0385C134.008 31.5285 134.572 36.0152 134.573 40.4847C134.574 55.6467 128.077 70.5788 122.7 84.555C119.142 93.8037 116.111 103.303 115.252 113.25C115.063 115.474 114.967 117.699 114.967 119.923C114.967 127.322 116.047 134.679 118.406 141.7C123.73 157.418 136.42 171.008 152.673 175.467C169.822 180.134 189.635 172.642 197.659 156.43C199.175 153.395 203.28 155.258 203.28 158.087C203.28 158.538 203.174 159.016 202.937 159.5C195.693 174.075 179.566 182.836 163.52 182.999C146.574 183.124 131.016 173.422 121.151 160.08C112.576 148.47 108.917 134.195 108.916 119.958C108.916 115.368 109.293 110.782 110.012 106.291C113.246 86.1096 125.158 68.468 127.896 48.2449C128.247 45.7386 128.443 43.1565 128.443 40.5608C128.442 32.4709 126.516 24.285 121.183 18.1174C115.328 11.3619 106.323 6.98232 97.398 9.68524C95.153 10.3764 93.6642 8.50621 93.6641 6.6634Z" fill="#6A223E"/>
<path fill-rule="evenodd" clip-rule="evenodd" d="M5.22171e-09 4.78529C-0.000102621 3.01467 1.51255 1.05486 3.82297 1.42259C43.4474 7.84584 78.2428 36.6205 92.4101 74.1189C100.065 94.4203 100.764 121.602 120.373 135.068C140.634 148.942 162.984 131.379 175.429 115.374C191.267 95.0711 200.232 69.608 200.842 43.8601C200.925 39.9957 206.941 39.93 206.941 43.7806C206.941 43.8081 206.941 43.8322 206.941 43.8597C206.372 67.5207 199.167 90.9346 186.193 110.749C174.488 128.597 154.882 149.268 131.303 145.832C120.659 144.278 112.022 137.403 105.839 128.887C98.8388 119.144 95.565 107.437 92.5353 96.0161C89.6672 84.9249 86.5963 74.078 81.1532 63.9256C76.1983 54.7153 69.9335 46.282 62.6064 38.8322C46.3535 22.3372 25.1501 10.9997 2.22806 7.31902C0.67061 7.05438 0.000102656 5.96455 5.22171e-09 4.78529Z" fill="#C13E70"/>
<path fill-rule="evenodd" clip-rule="evenodd" d="M98.5596 106.708C98.5595 105.993 98.9411 105.285 99.8213 105.023C103.545 103.916 107.313 102.812 111.077 101.705C112.408 101.313 113.278 102.403 113.278 103.472C113.278 104.184 112.9 104.885 112.02 105.146C108.255 106.25 104.528 107.354 100.764 108.503C99.433 108.898 98.5597 107.791 98.5596 106.708Z" fill="#C13E70"/>
<path fill-rule="evenodd" clip-rule="evenodd" d="M95.8462 96.7068C95.8461 96.1842 96.1212 95.6857 96.7916 95.4037C102.726 92.8248 108.701 90.2458 114.68 87.6669C116.11 87.0479 117.427 88.3165 117.427 89.4648C117.427 89.9909 117.148 90.4928 116.481 90.7748C110.503 93.3572 104.569 95.8949 98.5933 98.4738C97.1597 99.0894 95.8462 97.8414 95.8462 96.7068Z" fill="#C13E70"/>
<path fill-rule="evenodd" clip-rule="evenodd" d="M93.188 85.303C93.1879 84.7633 93.4527 84.2338 94.0887 83.9002C103.382 79.1516 112.63 74.403 121.923 69.6544C123.332 68.9495 124.625 70.1837 124.625 71.3699C124.625 71.9062 124.36 72.4322 123.724 72.7658C114.431 77.5144 105.183 82.263 95.8904 87.0116C94.4809 87.744 93.188 86.4961 93.188 85.303Z" fill="#C13E70"/>
<path fill-rule="evenodd" clip-rule="evenodd" d="M89.553 71.0833C89.553 70.5366 89.8039 69.9899 90.4021 69.6151L128.309 46.6462C129.671 45.8244 130.956 47.0518 130.957 48.2792C130.957 48.8155 130.709 49.3553 130.107 49.7163L92.2039 72.7265C90.839 73.5517 89.5531 72.321 89.553 71.0833Z" fill="#C13E70"/>
<path fill-rule="evenodd" clip-rule="evenodd" d="M80.9019 58.7411C80.9019 58.3389 81.084 57.9263 81.5206 57.579C95.9702 45.9126 110.379 34.2875 124.828 22.6589C126.193 21.5415 127.981 22.7309 127.981 23.9961C127.981 24.3984 127.799 24.811 127.366 25.1583C112.916 36.8246 98.4664 48.4498 84.0581 60.1196C82.6932 61.2061 80.902 60.0098 80.9019 58.7411Z" fill="#C13E70"/>
<path fill-rule="evenodd" clip-rule="evenodd" d="M74.0286 48.9257C74.0285 48.5269 74.1729 48.1212 74.5201 47.7567C87.2918 34.3714 100.019 21.0239 112.749 7.67985C113.99 6.37673 115.795 7.61433 115.795 8.99988C115.795 9.3987 115.644 9.80785 115.287 10.1757C102.56 23.5611 89.788 36.9086 77.0576 50.2526C75.8165 51.5592 74.0287 50.3147 74.0286 48.9257Z" fill="#C13E70"/>
<path fill-rule="evenodd" clip-rule="evenodd" d="M64.5352 35.8168C64.5351 35.4146 64.6795 34.9951 65.0233 34.6169C73.7417 24.9553 82.5013 15.2524 91.2197 5.55299C92.4333 4.20862 94.2246 5.46685 94.2247 6.90053C94.2247 7.29935 94.0872 7.71537 93.7572 8.09014C84.9976 17.793 76.2792 27.4512 67.5608 37.154C66.3472 38.495 64.5353 37.2471 64.5352 35.8168Z" fill="#C13E70"/>
<path fill-rule="evenodd" clip-rule="evenodd" d="M55.2551 25.6681C55.2551 25.3758 55.3376 25.0664 55.5232 24.7535C60.2742 17.0553 64.9804 9.36056 69.728 1.6658C70.7249 0.0120113 73.08 1.01922 73.0801 2.54918C73.0802 2.84141 72.9942 3.15085 72.7983 3.46373C68.0921 11.1619 63.3411 18.8567 58.6348 26.5927C57.6001 28.2499 55.2552 27.2324 55.2551 25.6681Z" fill="#C13E70"/>
<path fill-rule="evenodd" clip-rule="evenodd" d="M41.5503 17.648C41.5503 17.3936 41.6053 17.1254 41.729 16.8538C44.0631 11.5315 46.4351 6.25041 48.8105 0.92809C49.6287 -0.887276 52.056 0.236825 52.0561 1.93524C52.0561 2.18966 52.0012 2.45784 51.8808 2.72945C49.5467 8.05177 47.1748 13.3328 44.7994 18.6552C43.9812 20.4705 41.5504 19.343 41.5503 17.648Z" fill="#C13E70"/>
</svg>
