<svg width="257" height="258" viewBox="0 0 257 258" fill="none" xmlns="http://www.w3.org/2000/svg">
<path d="M75.2431 14.4203H74.7431V14.9203V101.107C74.7431 108.864 72.4142 116.446 68.0587 123.187C68.0585 123.188 68.0583 123.188 68.058 123.188L4.24557 220.732L4.24479 220.733C-1.07341 228.914 -0.412686 238.127 4.24618 245.278C8.90105 252.422 17.536 257.5 28.1573 257.5H173.486C184.103 257.5 192.763 252.423 197.43 245.278C202.102 238.127 202.763 228.913 197.389 220.731L133.577 123.189C129.23 116.447 126.901 108.865 126.901 101.107V14.9203V14.4203H126.401H75.2431Z" fill="#F5F7FA" stroke="#1C1E26"/>
<path d="M75.2432 14.4203H74.7432V14.9203V23.8294V24.3294H75.2432H126.401H126.901V23.8294V14.9203V14.4203H126.401H75.2432Z" fill="#A1BDF1" stroke="#1C1E26"/>
<path d="M69.4509 0.5H68.9509V1V14.9204V15.4204H69.4509H132.193H132.693V14.9204V1V0.5H132.193H69.4509Z" fill="white" stroke="#1C1E26"/>
<path fill-rule="evenodd" clip-rule="evenodd" d="M63.4605 177.336C59.9653 177.336 56.4161 177.717 53.038 178.481L20.1131 228.865C17.6448 232.659 19.2483 235.881 20.1131 237.201C20.8607 238.434 23.329 241.274 28.1574 241.274H173.486C178.414 241.274 180.774 238.434 181.639 237.201C182.387 235.881 183.99 232.659 181.639 228.865L156.749 190.89C150.092 193.189 143.003 194.39 135.904 194.39C133.625 194.39 131.346 194.271 129.076 194.016C117.924 192.879 107.411 188.806 97.007 185.02C95.5116 184.447 94.0072 183.882 92.4038 183.405C83.4947 180.287 74.1622 177.535 64.6225 177.352C64.2352 177.336 63.8478 177.336 63.4605 177.336Z" fill="#739CEA"/>
<path fill-rule="evenodd" clip-rule="evenodd" d="M122.131 177.28C120.797 177.28 119.464 177.336 118.14 177.439C109.24 178.107 100.871 181.042 92.4037 183.405C94.0071 183.882 95.5115 184.447 97.0069 185.02C107.411 188.806 117.924 192.879 129.076 194.016C131.346 194.271 133.625 194.39 135.904 194.39C143.003 194.39 150.092 193.189 156.749 190.89C148.39 182.22 135.094 177.28 122.131 177.28Z" fill="#284AA3"/>
<path fill-rule="evenodd" clip-rule="evenodd" d="M64.6225 202.822C63.1182 202.822 61.9381 203.864 61.9381 205.192C61.9381 206.425 63.1182 207.467 64.6225 207.467C66.1179 207.467 67.298 206.425 67.298 205.192C67.298 203.864 66.1179 202.822 64.6225 202.822Z" fill="#284AA3"/>
<path fill-rule="evenodd" clip-rule="evenodd" d="M78.243 215.517C77.171 215.517 76.3152 216.273 76.3152 217.22C76.3152 218.166 77.171 218.922 78.243 218.922C79.3149 218.922 80.1707 218.166 80.1707 217.22C80.1707 216.273 79.3149 215.517 78.243 215.517Z" fill="#284AA3"/>
<path fill-rule="evenodd" clip-rule="evenodd" d="M98.6194 205.192C97.0069 205.192 95.6196 206.33 95.6196 207.841C95.6196 209.265 97.0069 210.498 98.6194 210.498C100.34 210.498 101.619 209.265 101.619 207.841C101.619 206.33 100.34 205.192 98.6194 205.192Z" fill="#284AA3"/>
<path fill-rule="evenodd" clip-rule="evenodd" d="M119.428 218.922C117.708 218.922 116.212 220.25 116.212 221.762C116.212 223.376 117.708 224.705 119.428 224.705C121.248 224.705 122.752 223.376 122.752 221.762C122.752 220.25 121.248 218.922 119.428 218.922Z" fill="#284AA3"/>
<path fill-rule="evenodd" clip-rule="evenodd" d="M135.409 209.265C133.049 209.265 131.229 210.967 131.229 213.051C131.229 215.04 133.049 216.742 135.409 216.742C137.769 216.742 139.589 215.04 139.589 213.051C139.589 210.967 137.769 209.265 135.409 209.265Z" fill="#284AA3"/>
<path fill-rule="evenodd" clip-rule="evenodd" d="M53.5695 223.185C52.0741 223.185 50.6779 224.323 50.6779 225.747C50.6779 227.163 52.0741 228.3 53.5695 228.3C55.182 228.3 56.4701 227.163 56.4701 225.747C56.4701 224.323 55.182 223.185 53.5695 223.185Z" fill="#284AA3"/>
<path d="M152.357 102.894C149.258 93.5307 140.564 86.76 130.33 86.76C119.86 86.76 110.991 93.8408 108.087 103.541C106.251 102.306 103.895 101.541 101.254 101.541C98.6126 101.541 96.2578 102.305 94.421 103.54C91.5168 93.8405 82.6465 86.7603 72.1764 86.7603C61.9423 86.7603 53.2495 93.531 50.1501 102.894L49.0821 107.747C48.9845 108.626 48.9232 109.516 48.9232 110.42C48.9232 123.466 59.3545 134.078 72.1764 134.078C84.9983 134.078 95.4308 123.466 95.4308 110.42C95.4308 110.284 95.4132 110.153 95.4107 110.017H95.4275C95.4275 108.304 97.8207 106.394 101.254 106.394C104.688 106.394 107.08 108.304 107.08 110.017H107.098C107.096 110.153 107.078 110.284 107.078 110.42C107.078 123.466 117.508 134.078 130.33 134.078C143.152 134.078 153.584 123.466 153.584 110.42C153.584 109.516 153.523 108.626 153.425 107.747L152.357 102.894ZM72.1764 129.225C61.9852 129.225 53.6933 120.788 53.6933 110.42C53.6933 100.05 61.9852 91.6135 72.1764 91.6135C82.3689 91.6135 90.6608 100.05 90.6608 110.42C90.6608 120.788 82.3689 129.225 72.1764 129.225ZM130.33 129.225C120.14 129.225 111.848 120.788 111.848 110.42C111.848 100.05 120.14 91.6135 130.33 91.6135C140.523 91.6135 148.815 100.05 148.815 110.42C148.814 120.788 140.522 129.225 130.33 129.225Z" fill="#0C0D10"/>
<ellipse cx="15.3122" cy="15.357" rx="15.3122" ry="15.357" transform="matrix(1 0.000427411 -0.000462287 1 114.166 94.44)" fill="#0C0D10"/>
<ellipse cx="126.133" cy="104.68" rx="6.656" ry="6.4" fill="#F5F7FA"/>
<ellipse cx="122.805" cy="115.56" rx="3.328" ry="3.2" fill="#F5F7FA"/>
<ellipse cx="15.3122" cy="15.357" rx="15.3122" ry="15.357" transform="matrix(1 0.000427411 -0.000462287 1 56.9247 94.44)" fill="#0C0D10"/>
<ellipse cx="66.2289" cy="104.68" rx="6.656" ry="6.4" fill="#F5F7FA"/>
<ellipse cx="62.9009" cy="115.56" rx="3.328" ry="3.2" fill="#F5F7FA"/>
<path d="M121.708 139.322C121.482 139.24 121.227 139.226 121.001 139.294C114.576 141.063 107.91 141.948 101.174 141.948C94.438 141.948 87.7583 141.05 81.3476 139.294C81.107 139.226 80.8664 139.24 80.64 139.322C79.9466 139.594 78.8428 140.601 80.3003 144.452V144.465C82.4514 149.391 88.1545 158.045 101.16 158.045C114.137 158.045 119.84 149.378 122.048 144.465C123.491 140.601 122.402 139.594 121.708 139.322Z" fill="#0C0D10"/>
<path d="M101.16 156.671C106.552 156.671 110.599 155.079 113.628 152.902C110.302 151.46 106.198 150.521 101.16 150.521C96.1222 150.521 92.0182 151.473 88.6925 152.929C91.7211 155.079 95.7685 156.671 101.16 156.671Z" fill="#C13E70"/>
<path d="M121.298 139.24C121.255 139.24 121.213 139.24 121.156 139.254C114.675 141.05 107.953 141.961 101.146 141.961C94.3388 141.961 87.6167 141.05 81.1353 139.254C81.0928 139.24 81.0503 139.24 80.9937 139.24C80.555 139.281 78.4606 139.703 80.2578 144.465V144.479C81.1353 146.466 82.5929 149.065 84.8713 151.446C82.7344 149.01 85.3666 147.663 90.0508 148.207C94.7351 148.752 101.146 148.765 101.146 148.765C101.146 148.765 107.542 148.752 112.241 148.207C116.925 147.663 119.557 149.01 117.42 151.446C119.699 149.065 121.156 146.466 122.034 144.479V144.465C123.831 139.689 121.737 139.267 121.298 139.24Z" fill="#0C0D10"/>
<path d="M117.689 145.935C119.473 145.567 120.817 144.139 120.987 142.383L121.157 140.669C114.675 142.424 107.953 143.322 101.16 143.322C94.3673 143.322 87.6452 142.424 81.1637 140.669L81.3335 142.383C81.5034 144.125 82.8478 145.554 84.6309 145.935C90.0369 147.064 95.5844 147.622 101.16 147.622C106.736 147.622 112.283 147.051 117.689 145.935Z" fill="#F5F7FA"/>
<g clip-path="url(#clip0_537_3255)">
<path d="M170.788 128.414L170.78 128.249L170.676 128.121C165.353 121.582 162.781 114.71 162.781 107.133C162.781 85.7291 183.712 68.1669 209.64 68.1669C235.568 68.1669 256.5 85.7289 256.5 107.133C256.5 128.537 235.568 146.099 209.64 146.099C202.734 146.099 199.399 144.793 194.597 142.761L194.34 142.652L194.113 142.813C186.913 147.924 177.739 150.667 171.381 152.565L171.38 152.565L171.322 152.583C169.843 153.025 168.482 153.432 167.306 153.821L167.306 153.821C166.952 153.938 166.587 153.993 166.227 153.993C165.055 153.993 163.932 153.393 163.291 152.352L163.29 152.352C162.454 150.996 162.663 149.241 163.791 148.11C170.763 141.137 170.935 131.557 170.788 128.414Z" fill="#F5F7FA" stroke="#1C1E26"/>
</g>
<defs>
<clipPath id="clip0_537_3255">
<rect width="94.72" height="94.72" fill="white" transform="translate(162.28 63.72)"/>
</clipPath>
</defs>
</svg>
