<svg width="512" height="512" viewBox="0 0 512 512" fill="none" xmlns="http://www.w3.org/2000/svg">
<rect width="512" height="512" rx="50" fill="#B8D5FE"/>
<path d="M252.601 84.3805V214.161C252.601 225.846 256.109 237.267 262.653 247.416L358.374 393.734L358.742 394.306C366.344 406.344 365.284 419.796 358.436 430.28C351.482 440.923 338.573 448.5 322.729 448.5H104.736C88.8858 448.5 76.0136 440.924 69.0791 430.28C62.1406 419.63 61.1578 405.918 69.0771 393.736V393.735L164.797 247.418L165.403 246.463C171.572 236.554 174.864 225.482 174.864 214.161V84.3805H252.601Z" fill="#F5F7FA" stroke="#1C1E26"/>
<path d="M252.601 84.3805V98.7438H174.865V84.3805H252.601Z" fill="#A1BDF1" stroke="#1C1E26"/>
<path d="M261.29 63.5V85.3809H166.176V63.5H261.29Z" fill="white" stroke="#1C1E26"/>
<path fill-rule="evenodd" clip-rule="evenodd" d="M157.691 328.503C152.448 328.503 147.124 329.076 142.057 330.222L92.6698 405.797C88.9674 411.489 91.3726 416.321 92.6698 418.302C93.7912 420.151 97.4936 424.411 104.736 424.411H322.73C330.121 424.411 333.661 420.151 334.958 418.302C336.08 416.321 338.485 411.489 334.958 405.797L297.624 348.835C287.638 352.283 277.004 354.085 266.357 354.085C262.938 354.085 259.519 353.906 256.114 353.524C239.386 351.818 223.617 345.709 208.011 340.03C205.768 339.17 203.511 338.323 201.106 337.607C187.742 332.93 173.743 328.802 159.434 328.527C158.853 328.503 158.272 328.503 157.691 328.503Z" fill="#739CEA"/>
<path fill-rule="evenodd" clip-rule="evenodd" d="M245.696 328.42C243.696 328.42 241.696 328.503 239.71 328.659C226.36 329.661 213.807 334.064 201.105 337.607C203.511 338.323 205.767 339.17 208.01 340.03C223.617 345.709 239.386 351.818 256.114 353.524C259.519 353.906 262.938 354.085 266.356 354.085C277.004 354.085 287.638 352.283 297.624 348.835C285.084 335.83 265.14 328.42 245.696 328.42Z" fill="#284AA3"/>
<path fill-rule="evenodd" clip-rule="evenodd" d="M159.434 366.733C157.177 366.733 155.407 368.296 155.407 370.289C155.407 372.138 157.177 373.701 159.434 373.701C161.677 373.701 163.447 372.138 163.447 370.289C163.447 368.296 161.677 366.733 159.434 366.733Z" fill="#284AA3"/>
<path fill-rule="evenodd" clip-rule="evenodd" d="M179.864 385.776C178.256 385.776 176.973 386.91 176.973 388.33C176.973 389.749 178.256 390.883 179.864 390.883C181.472 390.883 182.756 389.749 182.756 388.33C182.756 386.91 181.472 385.776 179.864 385.776Z" fill="#284AA3"/>
<path fill-rule="evenodd" clip-rule="evenodd" d="M210.429 370.289C208.01 370.289 205.929 371.995 205.929 374.262C205.929 376.398 208.01 378.247 210.429 378.247C213.01 378.247 214.929 376.398 214.929 374.262C214.929 371.995 213.01 370.289 210.429 370.289Z" fill="#284AA3"/>
<path fill-rule="evenodd" clip-rule="evenodd" d="M241.643 390.883C239.062 390.883 236.819 392.875 236.819 395.142C236.819 397.565 239.062 399.557 241.643 399.557C244.372 399.557 246.629 397.565 246.629 395.142C246.629 392.875 244.372 390.883 241.643 390.883Z" fill="#284AA3"/>
<path fill-rule="evenodd" clip-rule="evenodd" d="M265.613 376.397C262.073 376.397 259.344 378.951 259.344 382.077C259.344 385.06 262.073 387.613 265.613 387.613C269.153 387.613 271.883 385.06 271.883 382.077C271.883 378.951 269.153 376.397 265.613 376.397Z" fill="#284AA3"/>
<path fill-rule="evenodd" clip-rule="evenodd" d="M142.854 397.278C140.611 397.278 138.517 398.985 138.517 401.12C138.517 403.244 140.611 404.951 142.854 404.951C145.273 404.951 147.205 403.244 147.205 401.12C147.205 398.985 145.273 397.278 142.854 397.278Z" fill="#284AA3"/>
<path d="M291.036 216.841C286.386 202.796 273.346 192.64 257.995 192.64C242.289 192.64 228.986 203.261 224.631 217.811C221.876 215.958 218.343 214.811 214.38 214.811C210.419 214.811 206.887 215.958 204.131 217.811C199.775 203.261 186.47 192.64 170.765 192.64C155.413 192.64 142.374 202.796 137.725 216.841L136.123 224.121C135.977 225.439 135.885 226.773 135.885 228.13C135.885 247.699 151.532 263.617 170.765 263.617C189.997 263.617 205.646 247.699 205.646 228.13C205.646 227.926 205.62 227.729 205.616 227.526H205.641C205.641 224.956 209.231 222.091 214.381 222.091C219.532 222.091 223.12 224.956 223.12 227.526H223.147C223.143 227.729 223.117 227.926 223.117 228.13C223.117 247.699 238.762 263.617 257.995 263.617C277.228 263.617 292.876 247.699 292.876 228.13C292.876 226.773 292.785 225.439 292.638 224.121L291.036 216.841ZM170.765 256.337C155.478 256.337 143.04 243.682 143.04 228.13C143.04 212.575 155.478 199.92 170.765 199.92C186.053 199.92 198.491 212.575 198.491 228.13C198.491 243.682 186.053 256.337 170.765 256.337ZM257.995 256.337C242.71 256.337 230.272 243.682 230.272 228.13C230.272 212.575 242.71 199.92 257.995 199.92C273.284 199.92 285.722 212.575 285.722 228.13C285.721 243.682 273.284 256.337 257.995 256.337Z" fill="#0C0D10"/>
<ellipse cx="22.9683" cy="23.0355" rx="22.9683" ry="23.0355" transform="matrix(1 0.000427411 -0.000462287 1 233.749 204.16)" fill="#0C0D10"/>
<ellipse cx="251.699" cy="219.52" rx="9.984" ry="9.6" fill="#F5F7FA"/>
<ellipse cx="246.707" cy="235.84" rx="4.992" ry="4.8" fill="#F5F7FA"/>
<ellipse cx="22.9683" cy="23.0355" rx="22.9683" ry="23.0355" transform="matrix(1 0.000427411 -0.000462287 1 147.887 204.16)" fill="#0C0D10"/>
<ellipse cx="161.843" cy="219.52" rx="9.984" ry="9.6" fill="#F5F7FA"/>
<ellipse cx="156.851" cy="235.84" rx="4.992" ry="4.8" fill="#F5F7FA"/>
<path d="M245.063 271.483C244.723 271.36 244.341 271.34 244.001 271.442C234.364 274.095 224.366 275.422 214.261 275.422C204.157 275.422 194.138 274.075 184.522 271.442C184.161 271.34 183.8 271.36 183.46 271.483C182.42 271.891 180.764 273.401 182.951 279.178V279.198C186.177 286.587 194.732 299.568 214.24 299.568C233.706 299.568 242.261 286.566 245.572 279.198C247.737 273.401 246.103 271.891 245.063 271.483Z" fill="#0C0D10"/>
<path d="M214.24 297.507C222.328 297.507 228.399 295.119 232.942 291.853C227.953 289.689 221.797 288.281 214.24 288.281C206.683 288.281 200.527 289.71 195.539 291.894C200.082 295.119 206.153 297.507 214.24 297.507Z" fill="#C13E70"/>
<path d="M244.447 271.36C244.383 271.36 244.32 271.36 244.235 271.381C234.512 274.075 224.429 275.442 214.219 275.442C204.008 275.442 193.925 274.075 184.203 271.381C184.139 271.36 184.076 271.36 183.991 271.36C183.333 271.421 180.191 272.054 182.887 279.198V279.218C184.203 282.199 186.389 286.097 189.807 289.669C186.602 286.015 190.55 283.995 197.576 284.811C204.603 285.628 214.219 285.648 214.219 285.648C214.219 285.648 223.814 285.628 230.861 284.811C237.888 283.995 241.836 286.015 238.631 289.669C242.048 286.097 244.235 282.199 245.551 279.218V279.198C248.247 272.034 245.105 271.401 244.447 271.36Z" fill="#0C0D10"/>
<path d="M239.034 281.403C241.709 280.851 243.725 278.708 243.98 276.075L244.235 273.503C234.513 276.136 224.43 277.484 214.24 277.484C204.051 277.484 193.968 276.136 184.246 273.503L184.5 276.075C184.755 278.688 186.772 280.831 189.446 281.403C197.555 283.097 205.877 283.933 214.24 283.933C222.604 283.933 230.925 283.076 239.034 281.403Z" fill="#F5F7FA"/>
<g clip-path="url(#clip0_537_3320)">
<path d="M376.961 164.5C415.946 164.5 447.5 190.915 447.5 223.2C447.5 255.485 415.945 281.899 376.96 281.899C366.554 281.899 361.516 279.926 354.299 276.871L354.041 276.762L353.814 276.924C344.331 283.656 332.578 287.656 323.403 290.456L319.642 291.587C317.952 292.093 316.366 292.567 314.927 293.021L313.537 293.468C312.98 293.652 312.405 293.74 311.841 293.74C310.113 293.74 308.452 292.91 307.421 291.457L307.222 291.16V291.159L307.104 290.957C305.928 288.854 306.291 286.21 308.01 284.487L308.009 284.486C318.388 274.106 318.653 259.83 318.432 255.132L318.425 254.968L318.32 254.84L317.581 253.915C310.065 244.343 306.421 234.271 306.421 223.2C306.421 190.915 337.975 164.5 376.961 164.5Z" fill="#F5F7FA" stroke="#1C1E26"/>
</g>
<defs>
<clipPath id="clip0_537_3320">
<rect width="142.08" height="142.08" fill="white" transform="translate(305.92 158.08)"/>
</clipPath>
</defs>
</svg>
