<svg width="42" height="39" viewBox="0 0 42 39" fill="none" xmlns="http://www.w3.org/2000/svg">
<path d="M20.4234 4.09389C20.7114 4.88748 21.0451 5.77761 21.4137 6.69665C22.0214 8.21184 22.7272 9.82402 23.4696 11.2227C24.1495 12.5036 24.9131 13.7101 25.7222 14.4714L25.884 14.6168L25.886 14.6186C26.749 15.3563 28.1801 16.0142 29.7021 16.5829C31.2611 17.1655 33.0496 17.7019 34.73 18.1562C35.627 18.3987 36.4977 18.6189 37.2923 18.8118C36.5142 19.0538 35.6622 19.3277 34.7858 19.6258C33.1434 20.1845 31.3988 20.8326 29.887 21.5131C28.5034 22.1358 27.2049 22.8326 26.3843 23.5721L26.2266 23.7207C25.4154 24.5209 24.6925 25.8508 24.071 27.2593C23.4346 28.7016 22.8507 30.3546 22.3573 31.9046C22.0582 32.8444 21.7915 33.7531 21.5634 34.5628C21.2752 33.7698 20.9417 32.8803 20.5731 31.962C19.965 30.447 19.2589 28.8347 18.5162 27.436C17.8361 26.1552 17.0722 24.949 16.2636 24.1873L16.1008 24.041C15.2378 23.2984 13.807 22.6384 12.2854 22.0689C10.7265 21.4854 8.9378 20.9491 7.25753 20.4956C6.36508 20.2548 5.49843 20.0361 4.7071 19.8445C5.48173 19.6041 6.32945 19.3328 7.20113 19.0368C8.84363 18.4789 10.5887 17.8318 12.1009 17.1505C13.4845 16.5271 14.7829 15.8287 15.6044 15.0856L15.763 14.9359C16.5736 14.1328 17.2967 12.802 17.9184 11.3924C18.5549 9.9496 19.138 8.29725 19.6312 6.74815C19.9299 5.80979 20.1955 4.90229 20.4234 4.09389Z" stroke="#C13E70" stroke-width="2"/>
</svg>
