<svg width="390" height="215" viewBox="0 0 390 215" fill="none" xmlns="http://www.w3.org/2000/svg">
<path d="M335.416 413.851C349.71 397.694 367.161 413.134 381.458 396.974C395.755 380.814 378.303 365.374 392.597 349.217C406.891 333.061 424.345 348.497 438.642 332.337C452.938 316.178 435.484 300.741 449.78 284.581C464.077 268.421 481.529 283.861 495.823 267.704C510.117 251.547 492.668 236.104 506.964 219.945C521.261 203.785 538.712 219.224 553.009 203.065C567.306 186.905 549.854 171.465 564.15 155.305" stroke="white" stroke-opacity="0.08" stroke-width="2" stroke-miterlimit="10"/>
<path d="M387.745 460.147C402.039 443.99 419.491 459.43 433.787 443.27C448.084 427.11 430.632 411.67 444.926 395.513C459.22 379.356 476.674 394.793 490.971 378.633C505.268 362.473 487.813 347.037 502.11 330.877C516.406 314.717 533.858 330.157 548.152 314C562.446 297.843 544.997 282.4 559.293 266.241C573.59 250.081 591.042 265.52 605.338 249.36C619.635 233.201 602.183 217.761 616.48 201.601" stroke="white" stroke-opacity="0.08" stroke-width="2" stroke-miterlimit="10"/>
<path d="M283.086 367.555C297.38 351.398 314.832 366.838 329.128 350.678C343.425 334.518 325.973 319.078 340.267 302.922C354.561 286.765 372.016 302.201 386.312 286.041C400.609 269.882 383.154 254.445 397.451 238.285C411.747 222.125 429.199 237.565 443.493 221.408C457.787 205.251 440.338 189.809 454.635 173.649C468.931 157.489 486.383 172.928 500.679 156.769C514.976 140.609 497.524 125.169 511.821 109.009" stroke="white" stroke-opacity="0.08" stroke-width="2" stroke-miterlimit="10"/>
<path d="M204.592 298.111C218.886 281.954 236.337 297.393 250.634 281.234C264.931 265.074 247.479 249.634 261.773 233.477C276.067 217.32 293.521 232.757 307.818 216.597C322.114 200.437 304.66 185.001 318.956 168.841C333.253 152.681 350.705 168.121 364.999 151.964C379.293 135.807 361.844 120.364 376.14 104.204C390.437 88.0445 407.889 103.484 422.185 87.3243C436.482 71.1645 419.03 55.7249 433.326 39.5651" stroke="white" stroke-opacity="0.08" stroke-width="2" stroke-miterlimit="10"/>
<path d="M309.25 390.703C323.544 374.546 340.996 389.986 355.293 373.826C369.589 357.666 352.137 342.226 366.431 326.069C380.725 309.913 398.18 325.349 412.476 309.189C426.773 293.03 409.319 277.593 423.615 261.433C437.912 245.273 455.364 260.713 469.658 244.556C483.951 228.399 466.502 212.956 480.799 196.797C495.095 180.637 512.547 196.076 526.844 179.917C541.14 163.757 523.689 148.317 537.985 132.157" stroke="white" stroke-opacity="0.08" stroke-width="2" stroke-miterlimit="10"/>
<path d="M230.756 321.258C245.05 305.101 262.502 320.541 276.798 304.381C291.095 288.221 273.643 272.782 287.937 256.625C302.231 240.468 319.685 255.904 333.982 239.745C348.279 223.585 330.824 208.148 345.121 191.988C359.417 175.828 376.869 191.268 391.163 175.111C405.457 158.954 388.008 143.512 402.304 127.352C416.601 111.192 434.053 126.632 448.349 110.472C462.646 94.3119 445.194 78.8723 459.491 62.7125" stroke="white" stroke-opacity="0.08" stroke-width="2" stroke-miterlimit="10"/>
<path d="M361.58 436.999C375.874 420.842 393.326 436.282 407.622 420.122C421.919 403.962 404.467 388.522 418.761 372.365C433.055 356.208 450.509 371.645 464.806 355.485C479.103 339.325 461.648 323.889 475.945 307.729C490.241 291.569 507.693 307.009 521.987 290.852C536.281 274.695 518.832 259.252 533.128 243.093C547.425 226.933 564.877 242.372 579.173 226.212C593.47 210.053 576.018 194.613 590.315 178.453" stroke="white" stroke-opacity="0.08" stroke-width="2" stroke-miterlimit="10"/>
<path d="M256.921 344.407C271.215 328.25 288.667 343.69 302.963 327.53C317.26 311.37 299.808 295.931 314.102 279.774C328.396 263.617 345.85 279.053 360.147 262.894C374.444 246.734 356.989 231.297 371.286 215.137C385.582 198.977 403.034 214.417 417.328 198.26C431.622 182.103 414.173 166.661 428.469 150.501C442.766 134.341 460.218 149.781 474.514 133.621C488.811 117.461 471.359 102.021 485.656 85.8614" stroke="white" stroke-opacity="0.08" stroke-width="2" stroke-miterlimit="10"/>
<path d="M178.427 274.963C192.721 258.806 210.172 274.245 224.469 258.086C238.766 241.926 221.314 226.486 235.608 210.329C249.902 194.172 267.356 209.609 281.653 193.449C295.949 177.289 278.495 161.853 292.791 145.693C307.088 129.533 324.54 144.973 338.834 128.816C353.128 112.659 335.679 97.2163 349.975 81.0564C364.272 64.8966 381.723 80.3362 396.02 64.1764C410.317 48.0165 392.865 32.5769 407.161 16.4171" stroke="white" stroke-opacity="0.08" stroke-width="2" stroke-miterlimit="10"/>
<path d="M326.702 406.142C340.996 389.986 358.448 405.425 372.745 389.265C387.041 373.105 369.589 357.666 383.883 341.509C398.177 325.352 415.632 340.789 429.928 324.629C444.225 308.469 426.77 293.032 441.067 276.873C455.364 260.713 472.815 276.152 487.109 259.995C501.403 243.838 483.954 228.396 498.251 212.236C512.547 196.076 529.999 211.516 544.296 195.356C558.592 179.196 541.14 163.757 555.437 147.597" stroke="white" stroke-opacity="0.08" stroke-width="2" stroke-miterlimit="10"/>
<path d="M379.032 452.438C393.326 436.281 410.778 451.721 425.074 435.561C439.371 419.401 421.919 403.962 436.213 387.805C450.507 371.648 467.961 387.085 482.258 370.925C496.554 354.765 479.1 339.328 493.397 323.168C507.693 307.009 525.145 322.448 539.439 306.291C553.733 290.134 536.284 274.692 550.58 258.532C564.877 242.372 582.329 257.812 596.625 241.652C610.922 225.492 593.47 210.053 607.767 193.893" stroke="white" stroke-opacity="0.08" stroke-width="2" stroke-miterlimit="10"/>
<path d="M274.373 359.847C288.667 343.69 306.119 359.13 320.415 342.97C334.712 326.81 317.26 311.37 331.554 295.214C345.848 279.057 363.302 294.493 377.599 278.333C391.896 262.174 374.441 246.737 388.738 230.577C403.034 214.417 420.486 229.857 434.78 213.7C449.074 197.543 431.625 182.101 445.921 165.941C460.218 149.781 477.67 165.22 491.966 149.061C506.263 132.901 488.811 117.461 503.108 101.301" stroke="white" stroke-opacity="0.08" stroke-width="2" stroke-miterlimit="10"/>
<path d="M195.878 290.402C210.172 274.245 227.624 289.685 241.921 273.525C256.217 257.365 238.765 241.926 253.059 225.769C267.353 209.612 284.808 225.048 299.104 208.889C313.401 192.729 295.946 177.292 310.243 161.132C324.54 144.972 341.991 160.412 356.285 144.255C370.579 128.098 353.13 112.656 367.427 96.4959C381.723 80.3361 399.175 95.7756 413.472 79.6158C427.768 63.456 410.316 48.0164 424.613 31.8566" stroke="white" stroke-opacity="0.08" stroke-width="2" stroke-miterlimit="10"/>
<path d="M300.537 382.994C314.831 366.838 332.283 382.277 346.58 366.117C360.876 349.958 343.424 334.518 357.718 318.361C372.012 302.204 389.467 317.641 403.763 301.481C418.06 285.321 400.605 269.884 414.902 253.725C429.199 237.565 446.65 253.004 460.944 236.847C475.238 220.691 457.789 205.248 472.086 189.088C486.382 172.928 503.834 188.368 518.131 172.208C532.427 156.048 514.975 140.609 529.272 124.449" stroke="white" stroke-opacity="0.08" stroke-width="2" stroke-miterlimit="10"/>
<path d="M222.044 313.55C236.338 297.393 253.789 312.833 268.086 296.673C282.382 280.513 264.931 265.074 279.225 248.917C293.519 232.76 310.973 248.196 325.27 232.037C339.566 215.877 322.112 200.44 336.408 184.28C350.705 168.12 368.157 183.56 382.451 167.403C396.745 151.246 379.295 135.804 393.592 119.644C407.889 103.484 425.34 118.924 439.637 102.764C453.934 86.6039 436.482 71.1643 450.778 55.0045" stroke="white" stroke-opacity="0.08" stroke-width="2" stroke-miterlimit="10"/>
<path d="M352.868 429.29C367.161 413.133 384.613 428.573 398.91 412.413C413.206 396.253 395.755 380.814 410.049 364.657C424.343 348.5 441.797 363.937 456.094 347.777C470.39 331.617 452.936 316.18 467.232 300.02C481.529 283.861 498.981 299.3 513.275 283.143C527.569 266.986 510.119 251.544 524.416 235.384C538.713 219.224 556.164 234.664 570.461 218.504C584.758 202.344 567.306 186.905 581.602 170.745" stroke="white" stroke-opacity="0.08" stroke-width="2" stroke-miterlimit="10"/>
<path d="M248.208 336.699C262.502 320.542 279.954 335.982 294.25 319.822C308.547 303.662 291.095 288.222 305.389 272.066C319.683 255.909 337.137 271.345 351.434 255.186C365.73 239.026 348.276 223.589 362.573 207.429C376.869 191.269 394.321 206.709 408.615 190.552C422.909 174.395 405.46 158.953 419.756 142.793C434.053 126.633 451.505 142.073 465.801 125.913C480.098 109.753 462.646 94.3133 476.943 78.1534" stroke="white" stroke-opacity="0.08" stroke-width="2" stroke-miterlimit="10"/>
<path d="M169.713 267.254C184.007 251.097 201.459 266.537 215.756 250.377C230.052 234.217 212.6 218.778 226.894 202.621C241.188 186.464 258.643 201.901 272.939 185.741C287.236 169.581 269.781 154.144 284.078 137.984C298.375 121.825 315.826 137.264 330.12 121.107C344.414 104.95 326.965 89.5078 341.262 73.3479C355.558 57.1881 373.01 72.6277 387.307 56.4679C401.603 40.308 384.151 24.8684 398.448 8.70861" stroke="white" stroke-opacity="0.08" stroke-width="2" stroke-miterlimit="10"/>
<path d="M326.702 406.142C340.996 389.986 358.448 405.425 372.745 389.265C387.041 373.105 369.589 357.666 383.883 341.509C398.177 325.352 415.632 340.789 429.928 324.629C444.225 308.469 426.77 293.032 441.067 276.873C455.364 260.713 472.815 276.152 487.109 259.995C501.403 243.838 483.954 228.396 498.251 212.236C512.547 196.076 529.999 211.516 544.296 195.356C558.592 179.196 541.14 163.757 555.437 147.597" stroke="white" stroke-opacity="0.08" stroke-width="2" stroke-miterlimit="10"/>
<path d="M379.032 452.438C393.326 436.281 410.778 451.721 425.074 435.561C439.371 419.401 421.919 403.962 436.213 387.805C450.507 371.648 467.961 387.085 482.258 370.925C496.554 354.765 479.1 339.328 493.397 323.168C507.693 307.009 525.145 322.448 539.439 306.291C553.733 290.134 536.284 274.692 550.58 258.532C564.877 242.372 582.329 257.812 596.625 241.652C610.922 225.492 593.47 210.053 607.767 193.893" stroke="white" stroke-opacity="0.08" stroke-width="2" stroke-miterlimit="10"/>
<path d="M274.373 359.847C288.667 343.69 306.119 359.13 320.415 342.97C334.712 326.81 317.26 311.37 331.554 295.214C345.848 279.057 363.302 294.493 377.599 278.333C391.896 262.174 374.441 246.737 388.738 230.577C403.034 214.417 420.486 229.857 434.78 213.7C449.074 197.543 431.625 182.101 445.921 165.941C460.218 149.781 477.67 165.22 491.966 149.061C506.263 132.901 488.811 117.461 503.108 101.301" stroke="white" stroke-opacity="0.08" stroke-width="2" stroke-miterlimit="10"/>
<path d="M195.878 290.402C210.172 274.245 227.624 289.685 241.921 273.525C256.217 257.365 238.765 241.926 253.059 225.769C267.353 209.612 284.808 225.048 299.104 208.889C313.401 192.729 295.946 177.292 310.243 161.132C324.54 144.972 341.991 160.412 356.285 144.255C370.579 128.098 353.13 112.656 367.427 96.4959C381.723 80.3361 399.175 95.7756 413.472 79.6158C427.768 63.456 410.316 48.0164 424.613 31.8566" stroke="white" stroke-opacity="0.08" stroke-width="2" stroke-miterlimit="10"/>
<path d="M300.537 382.994C314.831 366.838 332.283 382.277 346.58 366.117C360.876 349.958 343.424 334.518 357.718 318.361C372.012 302.204 389.467 317.641 403.763 301.481C418.06 285.321 400.605 269.884 414.902 253.725C429.199 237.565 446.65 253.004 460.944 236.847C475.238 220.691 457.789 205.248 472.086 189.088C486.382 172.928 503.834 188.368 518.131 172.208C532.427 156.048 514.975 140.609 529.272 124.449" stroke="white" stroke-opacity="0.08" stroke-width="2" stroke-miterlimit="10"/>
<path d="M222.044 313.55C236.338 297.393 253.789 312.833 268.086 296.673C282.382 280.513 264.931 265.074 279.225 248.917C293.519 232.76 310.973 248.196 325.27 232.037C339.566 215.877 322.112 200.44 336.408 184.28C350.705 168.12 368.157 183.56 382.451 167.403C396.745 151.246 379.295 135.804 393.592 119.644C407.889 103.484 425.34 118.924 439.637 102.764C453.934 86.6039 436.482 71.1643 450.778 55.0045" stroke="white" stroke-opacity="0.08" stroke-width="2" stroke-miterlimit="10"/>
<path d="M352.868 429.29C367.161 413.133 384.613 428.573 398.91 412.413C413.206 396.253 395.755 380.814 410.049 364.657C424.343 348.5 441.797 363.937 456.094 347.777C470.39 331.617 452.936 316.18 467.232 300.02C481.529 283.861 498.981 299.3 513.275 283.143C527.569 266.986 510.119 251.544 524.416 235.384C538.713 219.224 556.164 234.664 570.461 218.504C584.758 202.344 567.306 186.905 581.602 170.745" stroke="white" stroke-opacity="0.08" stroke-width="2" stroke-miterlimit="10"/>
<path d="M248.208 336.699C262.502 320.542 279.954 335.982 294.25 319.822C308.547 303.662 291.095 288.222 305.389 272.066C319.683 255.909 337.137 271.345 351.434 255.186C365.73 239.026 348.276 223.589 362.573 207.429C376.869 191.269 394.321 206.709 408.615 190.552C422.909 174.395 405.46 158.953 419.756 142.793C434.053 126.633 451.505 142.073 465.801 125.913C480.098 109.753 462.646 94.3133 476.943 78.1534" stroke="white" stroke-opacity="0.08" stroke-width="2" stroke-miterlimit="10"/>
<path d="M169.713 267.254C184.007 251.097 201.459 266.537 215.756 250.377C230.052 234.217 212.6 218.778 226.894 202.621C241.188 186.464 258.643 201.901 272.939 185.741C287.236 169.581 269.781 154.144 284.078 137.984C298.375 121.825 315.826 137.264 330.12 121.107C344.414 104.95 326.965 89.5078 341.262 73.3479C355.558 57.1881 373.01 72.6277 387.307 56.4679C401.603 40.308 384.151 24.8684 398.448 8.70861" stroke="white" stroke-opacity="0.08" stroke-width="2" stroke-miterlimit="10"/>
<path d="M317.989 398.434C332.283 382.277 349.735 397.717 364.031 381.557C378.328 365.397 360.876 349.957 375.17 333.8C389.464 317.644 406.919 333.08 421.215 316.92C435.512 300.761 418.057 285.324 432.354 269.164C446.65 253.004 464.102 268.444 478.396 252.287C492.69 236.13 475.241 220.687 489.538 204.528C503.834 188.368 521.286 203.807 535.583 187.648C549.879 171.488 532.427 156.048 546.724 139.888" stroke="white" stroke-opacity="0.08" stroke-width="2" stroke-miterlimit="10"/>
<path d="M370.319 444.73C384.613 428.573 402.065 444.013 416.362 427.853C430.658 411.693 413.207 396.254 427.501 380.097C441.795 363.94 459.249 379.377 473.545 363.217C487.842 347.057 470.388 331.62 484.684 315.46C498.981 299.301 516.433 314.74 530.727 298.583C545.021 282.426 527.571 266.984 541.868 250.824C556.164 234.664 573.616 250.104 587.913 233.944C602.209 217.784 584.758 202.345 599.054 186.185" stroke="white" stroke-opacity="0.08" stroke-width="2" stroke-miterlimit="10"/>
<path d="M265.659 352.139C279.953 335.982 297.405 351.421 311.702 335.261C325.998 319.102 308.547 303.662 322.841 287.505C337.135 271.348 354.589 286.785 368.886 270.625C383.182 254.465 365.728 239.028 380.024 222.869C394.321 206.709 411.773 222.148 426.067 205.991C440.361 189.835 422.911 174.392 437.208 158.232C451.505 142.072 468.956 157.512 483.253 141.352C497.55 125.192 480.098 109.753 494.394 93.5929" stroke="white" stroke-opacity="0.08" stroke-width="2" stroke-miterlimit="10"/>
<path d="M187.165 282.694C201.459 266.537 218.911 281.976 233.207 265.817C247.504 249.657 230.052 234.217 244.346 218.06C258.64 201.903 276.095 217.34 290.391 201.18C304.688 185.02 287.233 169.584 301.53 153.424C315.826 137.264 333.278 152.704 347.572 136.547C361.866 120.39 344.417 104.947 358.714 88.7874C373.01 72.6276 390.462 88.0672 404.759 71.9073C419.055 55.7475 401.603 40.3079 415.9 24.1481" stroke="white" stroke-opacity="0.08" stroke-width="2" stroke-miterlimit="10"/>
<path d="M291.825 375.286C306.119 359.13 323.571 374.569 337.867 358.409C352.164 342.249 334.712 326.81 349.006 310.653C363.3 294.496 380.754 309.933 395.051 293.773C409.347 277.613 391.893 262.176 406.19 246.017C420.486 229.857 437.938 245.296 452.232 229.139C466.526 212.983 449.077 197.54 463.373 181.38C477.67 165.22 495.122 180.66 509.418 164.5C523.715 148.34 506.263 132.901 520.56 116.741" stroke="white" stroke-opacity="0.08" stroke-width="2" stroke-miterlimit="10"/>
<path d="M213.33 305.842C227.624 289.685 245.076 305.124 259.373 288.965C273.669 272.805 256.217 257.365 270.511 241.208C284.805 225.051 302.26 240.488 316.556 224.328C330.853 208.168 313.398 192.732 327.695 176.572C341.992 160.412 359.443 175.852 373.737 159.695C388.031 143.538 370.582 128.095 384.879 111.935C399.175 95.7755 416.627 111.215 430.924 95.0553C445.22 78.8954 427.768 63.4558 442.065 47.296" stroke="white" stroke-opacity="0.08" stroke-width="2" stroke-miterlimit="10"/>
<path d="M344.154 421.582C358.448 405.425 375.9 420.865 390.197 404.705C404.493 388.545 387.041 373.106 401.335 356.949C415.629 340.792 433.084 356.229 447.38 340.069C461.677 323.909 444.222 308.472 458.519 292.312C472.815 276.153 490.267 291.592 504.561 275.435C518.855 259.278 501.406 243.836 515.703 227.676C529.999 211.516 547.451 226.956 561.748 210.796C576.044 194.636 558.592 179.197 572.889 163.037" stroke="white" stroke-opacity="0.08" stroke-width="2" stroke-miterlimit="10"/>
<path d="M239.494 328.99C253.788 312.833 271.24 328.272 285.537 312.112C299.833 295.953 282.382 280.513 296.676 264.356C310.97 248.199 328.424 263.636 342.721 247.476C357.017 231.316 339.563 215.88 353.859 199.72C368.156 183.56 385.608 198.999 399.902 182.843C414.196 166.686 396.746 151.243 411.043 135.083C425.34 118.923 442.791 134.363 457.088 118.203C471.384 102.043 453.933 86.6038 468.229 70.444" stroke="white" stroke-opacity="0.08" stroke-width="2" stroke-miterlimit="10"/>
<path d="M161.001 259.546C175.295 243.389 192.747 258.828 207.043 242.669C221.34 226.509 203.888 211.069 218.182 194.912C232.476 178.755 249.93 194.192 264.227 178.032C278.523 161.872 261.069 146.436 275.366 130.276C289.662 114.116 307.114 129.556 321.408 113.399C335.702 97.2418 318.253 81.7993 332.549 65.6394C346.846 49.4796 364.298 64.9192 378.594 48.7594C392.891 32.5995 375.439 17.1599 389.736 1.00011" stroke="white" stroke-opacity="0.08" stroke-width="2" stroke-miterlimit="10"/>
</svg>
